<?xml version="1.0" encoding="UTF-8"?>
<svg xmlns="http://www.w3.org/2000/svg" version="1.1" viewBox="0 0 110 135">
  <!-- Generator: Adobe Illustrator 28.6.0, SVG Export Plug-In . SVG Version: 1.2.0 Build 709)  -->
  <g>
    <g id="Layer_1">
      <path d="M92.5,70.7c-.7-6.1-8.8-13.2-17.5-17.1-1.8-.8-3.8-1.6-6-2.4.9-5,1.4-10,.8-12-.2-.7-.5-1.4-1-2.1-1.5-1.9-4.1-3-7.2-3h-.1c-8.6,0-24.1,8.6-31.1,13.1-8.4,5.4-13.4,14.1-12.9,21.1h0c.3,6.6,3.1,11.6,8.3,14.6,3.3,1.9,7.5,2.9,11.8,2.9s9.4-1.1,13.6-3.3c1.3-.8,2.5-1.6,3.7-2.4,1.8,1.5,3.9,2.7,6.2,3.7,3.4,1.3,7.6,2,11.8,2,6.3,0,12.8-1.6,16.7-5.1,3-2.7,4.1-6.1,3.3-10h0ZM90.3,73.4c-.6,1.4-1.9,2.4-4,3.1-6,2.1-16.2.5-24.7-3.8,1.2-1.7,2.2-3.7,3-5.8,4.4,2.6,10.4,4.3,14.7,4.3s4.2-.5,5-1.7c0,0,0-.1,0-.2,1.3-2.9-1.3-7.2-3.8-10.1-.4-.4-.7-.7-1.1-1.1,7.6,4.9,12.4,11.2,10.6,15.2h0ZM68.1,55.4c1.2,0,2.4,0,3.3.3,2.8.6,5.5,2.3,7.9,5,2.7,2.9,4.2,6.3,3.5,7.9-1.5,1.8-10.7.7-17.5-3.4.5-1.5,1-3,1.5-4.7.4-1.4.8-3.2,1.2-5.1h0ZM31.2,48.8c7.9-5.1,22.5-12.7,30.1-12.8h.1c2.5,0,4.6.8,5.8,2.3.8,1,1.1,2.3.7,3.8-.3,1.6-1.9,4.7-3.3,7.5-1.1,2.1-2.1,4-2.6,5.4-2.2,5.9-4.9,12-9.9,16.3-5.3,4.5-12.4,7.2-19,7.2s-10.6-2.1-12.7-5.8c-.7-1.2-1.1-2.6-1.3-4.1,0,0,0,0,0-.1-.6-6.4,4.2-14.5,12.1-19.6h0ZM50,81c-6.3,3.3-16.4,4.5-23.5.4-2.1-1.2-3.7-2.8-4.9-4.7,2.8,2.3,6.9,3.6,11.6,3.6,7.1,0,14.6-2.9,20.2-7.6,5.2-4.6,8.1-10.9,10.4-17,.5-1.2,1.4-3.2,2.5-5.2.5-.9.9-1.8,1.4-2.7-.5,3.8-1.4,8.3-2.5,12.3-2.4,8.7-5.9,15.7-15.1,21h0ZM88,79.4c-5.4,4.8-17.8,6.1-26.5,2.8-2-.8-3.8-1.9-5.4-3.1,1.7-1.4,3.2-3,4.5-4.7,6.3,3.2,13.5,5,19.5,5s4.9-.3,6.9-1c1.2-.4,2.3-1,3.1-1.6-.5,1-1.2,1.9-2.1,2.7h0Z"/>
      <path d="M26.7,68.6c1.1,1.3,3.1,1.9,5.7,1.9,5.3,0,13-2.8,16.7-7.4,1.8-2.2,2.5-4.6,2-7.1-.9-4.2-6.9-6.1-12.1-6.1s-2.4.1-3.3.4c-3.2.8-5.9,3-7.9,6.5-2,3.5-3.2,8.5-1.2,11.6,0,0,0,0,0,.1h0ZM29.4,57.9c1.7-3,4-5,6.7-5.6.8-.2,1.8-.3,2.9-.3,4.5,0,9.7,1.6,10.3,4.6.4,1.9-.1,3.7-1.6,5.5-3.3,4.1-10.5,6.7-15.3,6.7s-3.5-.4-4.2-1.2c-1.3-2.1-.8-6,1.2-9.6h0Z"/>
    </g>
  </g>
</svg>